Patient4_TMGait_0pt2_02_right_06_EMG.mot
version=1
nRows=20
nColumns=33
inDegrees=no
endheader
time	1LAddLong	2LGlutMax	3LGlutMed	4LIliopsoas	5LSemiMemb	6LBicFemLong	7LRecFem	8LVastMed	9LVastLat	10LGasMed	11LTibAnt	12lTibPost	13LPeroneusLong	14LSol	15LExtDigLong	16LFlexDigLong	17RAddLong	18RGlutMax	19RGlutMed	20RIliopsoas	21RSemiMemb	22RBicFemLong	23RRecFem	24RVastMed	25RVastLat	26RGasMed	27RTibAnt	28RTibPost	29RPeroneusLong	30RSol	31RExtDigLong	32RFlexDigLong
14.635	0.036163	0.19257	0.1944	0.01236	0.020599	-0.04837	-0.074158	0.028534	0.026398	-0.1535	0.005951	0.12436	-0.54764	0.18219	-0.066833	-0.028229	-0.038147	-0.085754	-0.67658	0.13077	0.10422	-0.11932	-0.039978	-0.067902	-0.015106	-0.010071	0.77805	-0.007324	-0.049286	-0.053864	-0.004883	0.021057
14.636	0.027771	0.26291	0.030212	0.022125	-0.045471	-0.079193	0.018463	0.030518	-0.017548	0.061035	0.007172	0.065155	0.044403	-0.073242	-0.076904	-0.11551	-0.022125	-0.027313	-0.70862	-0.028534	0.11993	-0.10208	-0.066528	-0.087585	0.005341	-0.002289	0.9407	-0.002899	-0.049744	-0.11429	-0.009155	0.023651
14.637	0.02243	0.27451	0.095978	-0.016174	-0.019379	-0.058899	0.056305	0.034485	-0.10208	0.18127	-0.012665	0.068359	0.3122	0.078583	-0.037537	-0.092468	-0.019684	-0.027924	-0.55634	-0.18326	0.11581	-0.091248	-0.00885	-0.065765	-0.001526	0	0.53436	-0.001984	-0.05127	-0.09613	-0.003662	0.030212
14.638	0.023346	0.27039	0.1152	-0.008545	0.034027	-0.060883	0.052948	0.020294	-0.10681	0.17258	-0.014343	-0.029449	0.29495	-0.033875	0.020142	0.09903	0.005035	0.045624	0.063477	-0.24582	0.1326	-0.081177	0.020752	-0.008545	0.003662	-0.00061	-0.43381	0.001068	0.033569	-0.057526	-0.002899	0.026093
14.639	0.010529	0.23239	0.19501	0.002747	0.027771	-0.061646	0.05249	0.024567	-0.015869	0.14511	-0.031891	-0.005188	0.35538	-0.52399	-0.016022	0.007629	0.025024	-0.014954	-0.1268	-0.15182	0.14923	-0.069275	-0.048523	0.03067	0.005493	-0.004883	-0.23712	0.000305	0.020752	-0.07431	-0.000916	0.027618
14.64	0.001678	0.23346	0.17181	0.002899	0.022583	-0.04715	0.0383	0.033569	0.14587	0.2095	-0.023346	-0.026245	0.33752	-0.45792	-0.022888	-0.11078	0.03891	-0.052948	-0.67612	-0.084229	0.1506	-0.087891	-0.07309	-0.024719	0.011139	-0.008545	-0.88989	0.000916	0.13992	-0.059967	-0.001373	0.024414
14.641	-0.006256	0.26779	0.083008	0.00473	0.009155	-0.025787	0.038605	0.010529	0.070648	0.25284	-0.00946	0.014191	0.24551	0.032349	-0.002594	0.4422	0.041809	-0.024261	-0.83359	-0.020599	0.13779	-0.068054	-0.070953	-0.028076	0.010681	-0.007324	-1.0574	-0.002594	0.14786	-0.02121	-0.003662	0.029144
14.642	0.0177	0.29434	-0.0737	0.005188	0.001984	-0.009155	-0.009918	-0.008698	-0.1001	0.22598	-0.011749	0.056305	0.14862	0.064545	0.008698	0.26825	0.032043	-0.008545	-0.38116	-0.008545	0.13077	-0.074921	-0.10422	-0.028076	0.003967	-0.006256	-0.96481	-0.002136	0.14725	-0.022583	-0.003052	0.010834
14.643	0.004578	0.28168	-0.097351	-0.011139	0.009155	-0.016327	-0.085754	-0.015106	-0.17258	0.16937	-0.013123	-0.021667	0.112	-0.10056	0.00946	-0.10544	0.00885	-0.01297	-0.17899	0.002594	0.13504	-0.060272	-0.10422	-0.024719	-0.00473	-0.002899	-0.55908	0.001526	0.11749	-0.016174	-0.002747	0.016632
14.644	0.004578	0.20111	-0.08255	-0.008545	0.011292	0.006866	-0.12131	-0.021362	-0.08316	0.096741	-0.010376	-0.000916	0.084076	-0.34271	0.002289	-0.1181	0.020447	0.00946	-0.30518	0.071411	0.13809	-0.04303	-0.11719	0.005188	0.005951	-0.007477	-0.24887	-0.002747	0.016632	-0.040588	-0.002899	0.013885
14.645	-0.000153	0.1532	-0.041962	0.001221	0.004272	0.026855	-0.10086	-0.007935	0.15686	0.0354	-0.01236	-0.024414	0.041809	-0.43991	0.009613	-0.070496	0.080414	-0.013885	-0.52124	0.1532	0.13001	-0.043182	-0.1564	-0.026398	0.016785	-0.011292	-0.010223	-0.000153	-0.080719	-0.012207	-0.003815	0.024414
14.646	-0.005798	0.11932	0.032043	0.015106	-0.003204	0.075226	0.039063	-0.009766	0.14786	0.005341	-0.007477	-0.007324	0.177	-0.065613	0.010071	-0.019379	0.095062	-0.036163	-0.52078	0.24735	0.12405	-0.025787	-0.16953	0.012512	0.018311	-0.00824	0.099945	-0.00061	-0.086517	0.007782	-0.005035	0.007477
14.647	0.000763	0.086212	-0.042572	0.018921	-0.005798	0.065613	0.14236	-0.00061	0.078735	0.021667	-0.010223	0.001526	0.26474	0.050201	0.023651	-0.01297	0.061951	0.00351	-0.45044	0.15656	0.11231	-0.035706	-0.13275	-0.02182	0.02243	0.000153	0.13458	-0.001373	0.040894	-0.014496	-0.002899	0.01236
14.648	0.009155	0.080109	-0.16007	0.020294	0.000305	0.061035	0.12253	0.002289	0.11993	0.019836	-0.00946	-0.007477	0.2301	0.069275	0.015869	0.004272	0.005646	0.000305	-0.63522	0.053101	0.11047	-0.016785	-0.14496	-0.059662	0.018311	0	-0.050507	0.000153	0.087128	-0.040436	-0.005035	0.001678
14.649	0.014191	0.056915	-0.16815	0.007782	-0.005341	0.06485	0.11948	0.010223	0.018311	-0.016174	-0.002136	0.003357	0.11673	0.17502	0.02594	0.021515	-0.022583	0.04776	-0.57495	0.029907	0.091095	-0.016785	-0.1709	-0.001221	0.018921	0.000153	0.28397	-0.000458	0.069275	-0.087128	0.00061	-0.018311
14.65	0.007782	0.018921	-0.15884	0.000153	-0.003357	0.049133	0.14404	0.017853	-0.12238	-0.010986	0.013885	-0.000458	-0.026398	0.26627	0.06546	0.023193	-0.036316	0.091248	-0.39993	0.014038	0.086365	-0.027313	-0.11643	-0.004272	-0.004272	-0.002289	0.62408	0.000458	0.11749	-0.05722	-0.003815	-0.028381
14.651	0.010223	-0.036163	-0.16388	0.009766	-0.002289	0.04837	0.10117	-0.008392	-0.23819	-0.007935	0.020142	0.003204	-0.6218	0.14587	0.022888	-0.014648	-0.016022	0.065308	-0.61798	-0.081635	0.089111	-0.022583	-0.1384	-0.035553	0.00946	-0.006866	0.42526	-0.001526	0.098877	-0.046539	-0.008545	-0.034027
14.652	0.014496	-0.034332	-0.14374	0.007782	0.016022	0.070343	0.025635	-0.014954	-0.1831	-0.047913	-0.027771	0.014343	0.25803	0.13321	0.040283	-0.013275	-0.044098	0.028229	-0.52124	-0.1651	0.093689	-0.008392	-0.091553	-0.011444	-0.000305	-0.010376	-0.14038	0.000763	0.19028	0.054169	0.001221	-0.036926
14.653	0.007782	0.046234	-0.00473	-0.005646	-0.005341	-0.030518	-0.019073	-0.016174	-0.10468	-0.025635	-0.014496	0.009918	-0.002441	0.12451	-0.037231	-0.013123	-0.063171	0.045776	-0.39932	-0.22461	0.11292	0.000763	-0.088806	0.020142	0.015106	-0.011139	-0.50446	-0.000458	-0.35156	0.050964	-0.005493	-0.023041
14.654	-0.007172	0.071411	0.030518	-0.004883	-0.015259	-0.027313	0.034027	-0.014954	-0.023956	-0.019073	-0.002899	0.005646	-0.25726	0.090485	-0.10056	-0.01236	-0.03006	0.10513	0.029144	-0.26535	0.13855	0.013275	-0.095825	0.067902	0.019684	-0.000916	0.044556	-0.000153	-0.25604	-0.080109	-0.003967	-0.033875
